<svg width="18" height="18" viewBox="0 0 18 18" fill="none" xmlns="http://www.w3.org/2000/svg">
<path fill-rule="evenodd" clip-rule="evenodd" d="M7.92415 1.44828C4.34763 1.44828 1.44828 4.34763 1.44828 7.92415C1.44828 11.5007 4.34763 14.4 7.92415 14.4C11.5007 14.4 14.4 11.5007 14.4 7.92415C14.4 4.34762 11.5007 1.44828 7.92415 1.44828ZM0 7.92415C0 3.54777 3.54777 0 7.92415 0C12.3005 0 15.8482 3.54777 15.8482 7.92415C15.8482 9.85159 15.1601 11.6183 14.0161 12.992L17.7879 16.7638C18.0707 17.0466 18.0707 17.5051 17.7879 17.7879C17.5051 18.0707 17.0466 18.0707 16.7638 17.7879L12.992 14.0161C11.6183 15.1601 9.8516 15.8483 7.92415 15.8483C3.54777 15.8483 0 12.3005 0 7.92415Z" fill="#55B0F1"/>
</svg>
